<?xml version="1.0" encoding="UTF-8" standalone="no"?>
<!-- Created with Inkscape (http://www.inkscape.org/) -->

<svg
   width="180mm"
   height="180mm"
   viewBox="0 0 180 180"
   version="1.1"
   id="svg1"
   xml:space="preserve"
   xmlns:xlink="http://www.w3.org/1999/xlink"
   xmlns="http://www.w3.org/2000/svg"
   xmlns:svg="http://www.w3.org/2000/svg"><defs
     id="defs1"><linearGradient
       id="linearGradient3"><stop
         style="stop-color:#58faff;stop-opacity:1;"
         offset="0.53602308"
         id="stop3" /><stop
         style="stop-color:#ff42d8;stop-opacity:1;"
         offset="1"
         id="stop4" /></linearGradient><linearGradient
       xlink:href="#linearGradient3"
       id="linearGradient4"
       x1="104.22083"
       y1="139.14951"
       x2="113.8375"
       y2="149.10785"
       gradientUnits="userSpaceOnUse"
       gradientTransform="matrix(13.030833,0,0,13.074955,-1228.4528,-1657.3253)" /></defs><g
     id="layer1"
     transform="translate(-102.03222,-137.12021)"><path
       id="rect1"
       style="fill:url(#linearGradient4);fill-opacity:1;fill-rule:evenodd;stroke:none;stroke-width:2.29922"
       d="m 102.24766,137.16516 v 56.84387 c 0,0 40.25193,-15.16194 40.39671,-15.16194 h 94.82615 c 0.79565,0 1.44144,0.64031 1.44144,1.43834 v 37.05373 c 0,0.79814 -0.64534,1.43654 -1.44144,1.43654 h -93.41217 c -0.79566,0 -1.4341,-0.6437 -1.4341,-1.43654 v -38.4994 c 0,-0.26154 -40.37625,35.43851 -40.37625,35.43851 v 102.27581 h 39.01619 V 257.2441 h 50.66569 l 48.62514,59.891 h 41.0564 v -18.405 l -34.06665,-41.19549 c 15.14156,0.11273 33.77721,-15.58367 34.94198,-31.26305 v -59.89112 c -0.11302,-10.8105 -11.84289,-29.50996 -23.87813,-28.92567 z m -0.0113,56.85086 -0.12771,20.39144 z" /></g></svg>
